G75*
%MOIN*%
%OFA0B0*%
%FSLAX25Y25*%
%IPPOS*%
%LPD*%
%AMOC8*
5,1,8,0,0,1.08239X$1,22.5*
%
%ADD10C,0.00000*%
%ADD11C,0.00300*%
%ADD12C,0.00400*%
%ADD13C,0.00500*%
D10*
X0001000Y0001000D02*
X0001000Y0040961D01*
X0079701Y0040961D01*
X0079701Y0001000D01*
X0001000Y0001000D01*
D11*
X0034250Y0018000D02*
X0034250Y0024000D01*
X0034252Y0024044D01*
X0034258Y0024087D01*
X0034267Y0024129D01*
X0034280Y0024171D01*
X0034297Y0024211D01*
X0034317Y0024250D01*
X0034340Y0024287D01*
X0034367Y0024321D01*
X0034396Y0024354D01*
X0034429Y0024383D01*
X0034463Y0024410D01*
X0034500Y0024433D01*
X0034539Y0024453D01*
X0034579Y0024470D01*
X0034621Y0024483D01*
X0034663Y0024492D01*
X0034706Y0024498D01*
X0034750Y0024500D01*
X0037250Y0024500D01*
X0037294Y0024498D01*
X0037337Y0024492D01*
X0037379Y0024483D01*
X0037421Y0024470D01*
X0037461Y0024453D01*
X0037500Y0024433D01*
X0037537Y0024410D01*
X0037571Y0024383D01*
X0037604Y0024354D01*
X0037633Y0024321D01*
X0037660Y0024287D01*
X0037683Y0024250D01*
X0037703Y0024211D01*
X0037720Y0024171D01*
X0037733Y0024129D01*
X0037742Y0024087D01*
X0037748Y0024044D01*
X0037750Y0024000D01*
X0037750Y0018000D01*
X0037748Y0017956D01*
X0037742Y0017913D01*
X0037733Y0017871D01*
X0037720Y0017829D01*
X0037703Y0017789D01*
X0037683Y0017750D01*
X0037660Y0017713D01*
X0037633Y0017679D01*
X0037604Y0017646D01*
X0037571Y0017617D01*
X0037537Y0017590D01*
X0037500Y0017567D01*
X0037461Y0017547D01*
X0037421Y0017530D01*
X0037379Y0017517D01*
X0037337Y0017508D01*
X0037294Y0017502D01*
X0037250Y0017500D01*
X0034750Y0017500D01*
X0034706Y0017502D01*
X0034663Y0017508D01*
X0034621Y0017517D01*
X0034579Y0017530D01*
X0034539Y0017547D01*
X0034500Y0017567D01*
X0034463Y0017590D01*
X0034429Y0017617D01*
X0034396Y0017646D01*
X0034367Y0017679D01*
X0034340Y0017713D01*
X0034317Y0017750D01*
X0034297Y0017789D01*
X0034280Y0017829D01*
X0034267Y0017871D01*
X0034258Y0017913D01*
X0034252Y0017956D01*
X0034250Y0018000D01*
X0054250Y0018000D02*
X0054250Y0024000D01*
X0054252Y0024044D01*
X0054258Y0024087D01*
X0054267Y0024129D01*
X0054280Y0024171D01*
X0054297Y0024211D01*
X0054317Y0024250D01*
X0054340Y0024287D01*
X0054367Y0024321D01*
X0054396Y0024354D01*
X0054429Y0024383D01*
X0054463Y0024410D01*
X0054500Y0024433D01*
X0054539Y0024453D01*
X0054579Y0024470D01*
X0054621Y0024483D01*
X0054663Y0024492D01*
X0054706Y0024498D01*
X0054750Y0024500D01*
X0057250Y0024500D01*
X0057294Y0024498D01*
X0057337Y0024492D01*
X0057379Y0024483D01*
X0057421Y0024470D01*
X0057461Y0024453D01*
X0057500Y0024433D01*
X0057537Y0024410D01*
X0057571Y0024383D01*
X0057604Y0024354D01*
X0057633Y0024321D01*
X0057660Y0024287D01*
X0057683Y0024250D01*
X0057703Y0024211D01*
X0057720Y0024171D01*
X0057733Y0024129D01*
X0057742Y0024087D01*
X0057748Y0024044D01*
X0057750Y0024000D01*
X0057750Y0018000D01*
X0057748Y0017956D01*
X0057742Y0017913D01*
X0057733Y0017871D01*
X0057720Y0017829D01*
X0057703Y0017789D01*
X0057683Y0017750D01*
X0057660Y0017713D01*
X0057633Y0017679D01*
X0057604Y0017646D01*
X0057571Y0017617D01*
X0057537Y0017590D01*
X0057500Y0017567D01*
X0057461Y0017547D01*
X0057421Y0017530D01*
X0057379Y0017517D01*
X0057337Y0017508D01*
X0057294Y0017502D01*
X0057250Y0017500D01*
X0054750Y0017500D01*
X0054706Y0017502D01*
X0054663Y0017508D01*
X0054621Y0017517D01*
X0054579Y0017530D01*
X0054539Y0017547D01*
X0054500Y0017567D01*
X0054463Y0017590D01*
X0054429Y0017617D01*
X0054396Y0017646D01*
X0054367Y0017679D01*
X0054340Y0017713D01*
X0054317Y0017750D01*
X0054297Y0017789D01*
X0054280Y0017829D01*
X0054267Y0017871D01*
X0054258Y0017913D01*
X0054252Y0017956D01*
X0054250Y0018000D01*
X0049487Y0034916D02*
X0048869Y0034916D01*
X0049487Y0034916D02*
X0050104Y0035533D01*
X0050104Y0038619D01*
X0048252Y0038619D01*
X0047635Y0038002D01*
X0047635Y0036767D01*
X0048252Y0036150D01*
X0050104Y0036150D01*
X0051318Y0036150D02*
X0052553Y0036150D01*
X0051935Y0036150D02*
X0051935Y0039853D01*
X0051318Y0039853D01*
X0054391Y0038619D02*
X0055625Y0038619D01*
X0056242Y0038002D01*
X0056242Y0036150D01*
X0054391Y0036150D01*
X0053774Y0036767D01*
X0054391Y0037384D01*
X0056242Y0037384D01*
X0057457Y0036150D02*
X0059308Y0036150D01*
X0059925Y0036767D01*
X0059925Y0038002D01*
X0059308Y0038619D01*
X0057457Y0038619D01*
X0057457Y0039853D02*
X0057457Y0036150D01*
X0061140Y0036150D02*
X0062991Y0036150D01*
X0063609Y0036767D01*
X0062991Y0037384D01*
X0061757Y0037384D01*
X0061140Y0038002D01*
X0061757Y0038619D01*
X0063609Y0038619D01*
X0066665Y0038619D02*
X0067282Y0038619D01*
X0067282Y0036150D01*
X0066665Y0036150D02*
X0067899Y0036150D01*
X0069120Y0036767D02*
X0069737Y0036150D01*
X0070972Y0036150D01*
X0071589Y0036767D01*
X0071589Y0038002D01*
X0070972Y0038619D01*
X0069737Y0038619D01*
X0069120Y0038002D01*
X0069120Y0036767D01*
X0065440Y0036767D02*
X0065440Y0036150D01*
X0064823Y0036150D01*
X0064823Y0036767D01*
X0065440Y0036767D01*
X0067282Y0039853D02*
X0067282Y0040470D01*
X0046421Y0038002D02*
X0046421Y0036767D01*
X0045803Y0036150D01*
X0044569Y0036150D01*
X0043952Y0036767D01*
X0043952Y0038002D01*
X0044569Y0038619D01*
X0045803Y0038619D01*
X0046421Y0038002D01*
X0042737Y0038619D02*
X0040886Y0038619D01*
X0040269Y0038002D01*
X0040269Y0036767D01*
X0040886Y0036150D01*
X0042737Y0036150D01*
X0042737Y0039853D01*
X0039054Y0039853D02*
X0039054Y0036150D01*
X0037203Y0036150D01*
X0036586Y0036767D01*
X0036586Y0038002D01*
X0037203Y0038619D01*
X0039054Y0038619D01*
X0035371Y0038002D02*
X0035371Y0036150D01*
X0033520Y0036150D01*
X0032902Y0036767D01*
X0033520Y0037384D01*
X0035371Y0037384D01*
X0035371Y0038002D02*
X0034754Y0038619D01*
X0033520Y0038619D01*
X0031688Y0038002D02*
X0031071Y0038619D01*
X0029836Y0038619D01*
X0029219Y0038002D01*
X0029219Y0036767D01*
X0029836Y0036150D01*
X0031071Y0036150D01*
X0031688Y0036767D01*
X0031688Y0038002D01*
X0028002Y0038619D02*
X0027384Y0038619D01*
X0026150Y0037384D01*
X0026150Y0036150D02*
X0026150Y0038619D01*
D12*
X0055197Y0030974D02*
X0055197Y0029940D01*
X0055714Y0029423D01*
X0055714Y0028268D02*
X0056749Y0028268D01*
X0057266Y0027751D01*
X0057266Y0026200D01*
X0058300Y0026200D02*
X0055197Y0026200D01*
X0055197Y0027751D01*
X0055714Y0028268D01*
X0057266Y0027234D02*
X0058300Y0028268D01*
X0058300Y0029423D02*
X0056232Y0031491D01*
X0055714Y0031491D01*
X0055197Y0030974D01*
X0058300Y0031491D02*
X0058300Y0029423D01*
X0036800Y0015046D02*
X0036800Y0012977D01*
X0034732Y0012977D02*
X0033697Y0014011D01*
X0036800Y0014011D01*
X0036800Y0011823D02*
X0035766Y0010789D01*
X0035766Y0011306D02*
X0035766Y0009755D01*
X0036800Y0009755D02*
X0033697Y0009755D01*
X0033697Y0011306D01*
X0034214Y0011823D01*
X0035249Y0011823D01*
X0035766Y0011306D01*
X0060197Y0011697D02*
X0060197Y0010663D01*
X0060714Y0010145D01*
X0060197Y0008991D02*
X0063300Y0008991D01*
X0060197Y0006923D01*
X0063300Y0006923D01*
X0062783Y0005768D02*
X0063300Y0005251D01*
X0063300Y0004217D01*
X0062783Y0003700D01*
X0060714Y0003700D01*
X0060197Y0004217D01*
X0060197Y0005251D01*
X0060714Y0005768D01*
X0063300Y0010145D02*
X0061232Y0012214D01*
X0060714Y0012214D01*
X0060197Y0011697D01*
X0063300Y0012214D02*
X0063300Y0010145D01*
X0008300Y0010145D02*
X0008300Y0012214D01*
X0008300Y0011180D02*
X0005197Y0011180D01*
X0006232Y0010145D01*
X0005197Y0008991D02*
X0008300Y0008991D01*
X0005197Y0006923D01*
X0008300Y0006923D01*
X0007783Y0005768D02*
X0008300Y0005251D01*
X0008300Y0004217D01*
X0007783Y0003700D01*
X0005714Y0003700D01*
X0005197Y0004217D01*
X0005197Y0005251D01*
X0005714Y0005768D01*
D13*
X0011000Y0006000D02*
X0011000Y0036000D01*
X0021000Y0036000D01*
X0021000Y0006000D01*
X0011000Y0006000D01*
X0066000Y0006000D02*
X0066000Y0036000D01*
X0076000Y0036000D01*
X0076000Y0006000D01*
X0066000Y0006000D01*
M02*
