G75*
%MOIN*%
%OFA0B0*%
%FSLAX25Y25*%
%IPPOS*%
%LPD*%
%AMOC8*
5,1,8,0,0,1.08239X$1,22.5*
%
%ADD10C,0.00000*%
%ADD11C,0.01250*%
%ADD12R,0.06500X0.06500*%
%ADD13C,0.06500*%
%ADD14C,0.01600*%
D10*
X0001000Y0001000D02*
X0001000Y0040961D01*
X0079701Y0040961D01*
X0079701Y0001000D01*
X0001000Y0001000D01*
D11*
X0035375Y0018625D02*
X0035375Y0019875D01*
X0036625Y0019875D01*
X0036625Y0018625D01*
X0035375Y0018625D01*
X0035375Y0019874D02*
X0036625Y0019874D01*
X0035375Y0022125D02*
X0035375Y0023375D01*
X0036625Y0023375D01*
X0036625Y0022125D01*
X0035375Y0022125D01*
X0035375Y0023374D02*
X0036625Y0023374D01*
X0056625Y0023375D02*
X0056625Y0022125D01*
X0055375Y0022125D01*
X0055375Y0023375D01*
X0056625Y0023375D01*
X0056625Y0023374D02*
X0055375Y0023374D01*
X0056625Y0019875D02*
X0056625Y0018625D01*
X0055375Y0018625D01*
X0055375Y0019875D01*
X0056625Y0019875D01*
X0056625Y0019874D02*
X0055375Y0019874D01*
D12*
X0071000Y0031000D03*
X0016000Y0031000D03*
D13*
X0016000Y0021000D03*
X0016000Y0011000D03*
X0071000Y0011000D03*
X0071000Y0021000D03*
D14*
X0061000Y0021000D01*
X0061000Y0026000D01*
X0056000Y0026000D01*
X0056000Y0022750D01*
X0056000Y0019250D02*
X0036000Y0019250D01*
X0016000Y0021000D01*
X0016000Y0011000D02*
X0071000Y0011000D01*
X0046000Y0031000D02*
X0036000Y0022750D01*
X0016000Y0031000D01*
X0046000Y0031000D02*
X0071000Y0031000D01*
M02*
