G75*
%MOIN*%
%OFA0B0*%
%FSLAX25Y25*%
%IPPOS*%
%LPD*%
%AMOC8*
5,1,8,0,0,1.08239X$1,22.5*
%
%ADD10C,0.00000*%
%ADD11C,0.00300*%
%ADD12C,0.00400*%
%ADD13C,0.00500*%
D10*
X0001000Y0001000D02*
X0001000Y0040961D01*
X0079701Y0040961D01*
X0079701Y0001000D01*
X0001000Y0001000D01*
D11*
X0043869Y0034916D02*
X0044487Y0034916D01*
X0045104Y0035533D01*
X0045104Y0038619D01*
X0043252Y0038619D01*
X0042635Y0038002D01*
X0042635Y0036767D01*
X0043252Y0036150D01*
X0045104Y0036150D01*
X0046318Y0036150D02*
X0047553Y0036150D01*
X0046935Y0036150D02*
X0046935Y0039853D01*
X0046318Y0039853D01*
X0049391Y0038619D02*
X0050625Y0038619D01*
X0051242Y0038002D01*
X0051242Y0036150D01*
X0049391Y0036150D01*
X0048774Y0036767D01*
X0049391Y0037384D01*
X0051242Y0037384D01*
X0052457Y0036150D02*
X0054308Y0036150D01*
X0054925Y0036767D01*
X0054925Y0038002D01*
X0054308Y0038619D01*
X0052457Y0038619D01*
X0052457Y0039853D02*
X0052457Y0036150D01*
X0056140Y0036150D02*
X0057991Y0036150D01*
X0058609Y0036767D01*
X0057991Y0037384D01*
X0056757Y0037384D01*
X0056140Y0038002D01*
X0056757Y0038619D01*
X0058609Y0038619D01*
X0061665Y0038619D02*
X0062282Y0038619D01*
X0062282Y0036150D01*
X0061665Y0036150D02*
X0062899Y0036150D01*
X0064120Y0036767D02*
X0064737Y0036150D01*
X0065972Y0036150D01*
X0066589Y0036767D01*
X0066589Y0038002D01*
X0065972Y0038619D01*
X0064737Y0038619D01*
X0064120Y0038002D01*
X0064120Y0036767D01*
X0060440Y0036767D02*
X0060440Y0036150D01*
X0059823Y0036150D01*
X0059823Y0036767D01*
X0060440Y0036767D01*
X0062282Y0039853D02*
X0062282Y0040470D01*
X0041421Y0038002D02*
X0041421Y0036767D01*
X0040803Y0036150D01*
X0039569Y0036150D01*
X0038952Y0036767D01*
X0038952Y0038002D01*
X0039569Y0038619D01*
X0040803Y0038619D01*
X0041421Y0038002D01*
X0037737Y0038619D02*
X0035886Y0038619D01*
X0035269Y0038002D01*
X0035269Y0036767D01*
X0035886Y0036150D01*
X0037737Y0036150D01*
X0037737Y0039853D01*
X0034054Y0039853D02*
X0034054Y0036150D01*
X0032203Y0036150D01*
X0031586Y0036767D01*
X0031586Y0038002D01*
X0032203Y0038619D01*
X0034054Y0038619D01*
X0030371Y0038002D02*
X0030371Y0036150D01*
X0028520Y0036150D01*
X0027902Y0036767D01*
X0028520Y0037384D01*
X0030371Y0037384D01*
X0030371Y0038002D02*
X0029754Y0038619D01*
X0028520Y0038619D01*
X0026688Y0038002D02*
X0026071Y0038619D01*
X0024836Y0038619D01*
X0024219Y0038002D01*
X0024219Y0036767D01*
X0024836Y0036150D01*
X0026071Y0036150D01*
X0026688Y0036767D01*
X0026688Y0038002D01*
X0023002Y0038619D02*
X0022384Y0038619D01*
X0021150Y0037384D01*
X0021150Y0036150D02*
X0021150Y0038619D01*
D12*
X0030800Y0023991D02*
X0030800Y0021923D01*
X0030800Y0020768D02*
X0029766Y0019734D01*
X0029766Y0020251D02*
X0029766Y0018700D01*
X0030800Y0018700D02*
X0027697Y0018700D01*
X0027697Y0020251D01*
X0028214Y0020768D01*
X0029249Y0020768D01*
X0029766Y0020251D01*
X0028732Y0021923D02*
X0027697Y0022957D01*
X0030800Y0022957D01*
X0042697Y0023474D02*
X0042697Y0022440D01*
X0043214Y0021923D01*
X0043214Y0020768D02*
X0044249Y0020768D01*
X0044766Y0020251D01*
X0044766Y0018700D01*
X0045800Y0018700D02*
X0042697Y0018700D01*
X0042697Y0020251D01*
X0043214Y0020768D01*
X0044766Y0019734D02*
X0045800Y0020768D01*
X0045800Y0021923D02*
X0043732Y0023991D01*
X0043214Y0023991D01*
X0042697Y0023474D01*
X0045800Y0023991D02*
X0045800Y0021923D01*
X0063700Y0006286D02*
X0064217Y0006803D01*
X0065251Y0006803D01*
X0065768Y0006286D01*
X0066923Y0006803D02*
X0068991Y0003700D01*
X0068991Y0006803D01*
X0070145Y0006286D02*
X0070663Y0006803D01*
X0071697Y0006803D01*
X0072214Y0006286D01*
X0072214Y0005768D01*
X0070145Y0003700D01*
X0072214Y0003700D01*
X0066923Y0003700D02*
X0066923Y0006803D01*
X0063700Y0006286D02*
X0063700Y0004217D01*
X0064217Y0003700D01*
X0065251Y0003700D01*
X0065768Y0004217D01*
X0012214Y0003700D02*
X0010145Y0003700D01*
X0011180Y0003700D02*
X0011180Y0006803D01*
X0010145Y0005768D01*
X0008991Y0006803D02*
X0008991Y0003700D01*
X0006923Y0006803D01*
X0006923Y0003700D01*
X0005768Y0004217D02*
X0005251Y0003700D01*
X0004217Y0003700D01*
X0003700Y0004217D01*
X0003700Y0006286D01*
X0004217Y0006803D01*
X0005251Y0006803D01*
X0005768Y0006286D01*
D13*
X0006000Y0006000D02*
X0006000Y0036000D01*
X0016000Y0036000D01*
X0016000Y0006000D01*
X0006000Y0006000D01*
X0066000Y0006000D02*
X0066000Y0036000D01*
X0076000Y0036000D01*
X0076000Y0006000D01*
X0066000Y0006000D01*
M02*
