0
SECTION
2
HEADER
9
$INSUNITS
70
4
9
$ACADVER
1
AC1014
9
$HANDSEED
5
FFFF
0
ENDSEC
0
SECTION
2
TABLES
0
TABLE
2
VPORT
5
8
100
AcDbSymbolTable
0
ENDTAB
0
TABLE
2
LTYPE
5
5
100
AcDbSymbolTable
0
LTYPE
5
14
100
AcDbSymbolTableRecord
100
AcDbLinetypeTableRecord
2
BYBLOCK
70
0
0
LTYPE
5
15
100
AcDbSymbolTableRecord
100
AcDbLinetypeTableRecord
2
BYLAYER
70
0
0
ENDTAB
0
TABLE
2
LAYER
5
2
100
AcDbSymbolTable
70
2
0
LAYER
5
50
100
AcDbSymbolTableRecord
100
AcDbLayerTableRecord
2
0
70
0
6
CONTINUOUS
0
ENDTAB
0
TABLE
2
STYLE
5
3
100
AcDbSymbolTable
70
1
0
STYLE
5
11
100
AcDbSymbolTableRecord
100
AcDbTextStyleTableRecord
2
STANDARD
70
0
0
ENDTAB
0
TABLE
2
VIEW
5
6
100
AcDbSymbolTable
70
0
0
ENDTAB
0
TABLE
2
UCS
5
7
100
AcDbSymbolTable
70
0
0
ENDTAB
0
TABLE
2
APPID
5
9
100
AcDbSymbolTable
70
2
0
APPID
5
12
100
AcDbSymbolTableRecord
100
AcDbRegAppTableRecord
2
ACAD
70
0
0
ENDTAB
0
TABLE
2
DIMSTYLE
5
A
100
AcDbSymbolTable
70
1
0
ENDTAB
0
TABLE
2
BLOCK_RECORD
5
1
100
AcDbSymbolTable
70
1
0
BLOCK_RECORD
5
1F
100
AcDbSymbolTableRecord
100
AcDbBlockTableRecord
2
*MODEL_SPACE
0
BLOCK_RECORD
5
1B
100
AcDbSymbolTableRecord
100
AcDbBlockTableRecord
2
*PAPER_SPACE
0
ENDTAB
0
ENDSEC
0
SECTION
2
BLOCKS
0
BLOCK
5
20
100
AcDbEntity
100
AcDbBlockBegin
2
*MODEL_SPACE
0
ENDBLK
5
21
100
AcDbEntity
100
AcDbBlockEnd
0
BLOCK
5
1C
100
AcDbEntity
100
AcDbBlockBegin
2
*PAPER_SPACE
0
ENDBLK
5
1D
100
AcDbEntity
100
AcDbBlockEnd
0
ENDSEC
0
SECTION
2
ENTITIES
0
LINE
5
100
100
AcDbEntity
8
0
100
AcDbLine
10
0
20
0
30
0
11
68
21
0
31
0
0
LINE
5
101
100
AcDbEntity
8
0
100
AcDbLine
10
68
20
0
30
0
11
68
21
-12.000000000000002
31
0
0
LINE
5
102
100
AcDbEntity
8
0
100
AcDbLine
10
0
20
-12.000000000000002
30
0
11
0
21
0
31
0
0
LINE
5
103
100
AcDbEntity
8
0
100
AcDbLine
10
34
20
-22.32703251518922
30
0
11
34
21
13.487394391130461
31
0
0
LINE
5
104
100
AcDbEntity
8
0
100
AcDbLine
10
34
20
13.487394391130461
30
0
11
56.5
21
13.487394391130461
31
0
0
LINE
5
105
100
AcDbEntity
8
0
100
AcDbLine
10
34
20
13.487394391130461
30
0
11
11.5
21
13.487394391130461
31
0
0
LINE
5
106
100
AcDbEntity
8
0
100
AcDbLine
10
11.5
20
13.487394391130461
30
0
11
11.5
21
12.321836119031303
31
0
0
LINE
5
107
100
AcDbEntity
8
0
100
AcDbLine
10
11.5
20
12.321836119031303
30
0
11
11.5
21
-20.84359471433574
31
0
0
LINE
5
108
100
AcDbEntity
8
0
100
AcDbLine
10
56.5
20
13.487394391130461
30
0
11
56.5
21
12.003956590276985
31
0
0
LINE
5
109
100
AcDbEntity
8
0
100
AcDbLine
10
56.5
20
12.003956590276985
30
0
11
56.5
21
-24.022390001878911
31
0
0
LINE
5
110
100
AcDbEntity
8
0
100
AcDbLine
10
7.3686182059500904
20
-12.000000000000002
30
0
11
7.3686182059500904
21
-3.5000000000000009
31
0
0
LINE
5
111
100
AcDbEntity
8
0
100
AcDbLine
10
7.3686182059500904
20
-3.5000000000000009
30
0
11
62.412282068691916
21
-3.5000000000000009
31
0
0
ARC
5
112
100
AcDbEntity
8
0
100
AcDbCircle
10
11.5
20
-11
30
0
40
7.4999999999999991
100
AcDbArc
50
3.7614010177721839
51
176.23865839652316
0
LINE
5
113
100
AcDbEntity
8
0
100
AcDbLine
10
4.0669656263407452
20
-12.000000000000002
30
0
11
0
21
-12.000000000000002
31
0
0
LINE
5
114
100
AcDbEntity
8
0
100
AcDbLine
10
18.98317022814722
20
-10.497841323313946
30
0
11
18.982831336782937
21
-10.507995106639532
31
0
0
LINE
5
115
100
AcDbEntity
8
0
100
AcDbLine
10
18.982831336782937
20
-10.507995106639532
30
0
11
18.982831336782937
21
-12.000000000000002
31
0
0
ARC
5
116
100
AcDbEntity
8
0
100
AcDbCircle
10
18.690741763175666
20
-10.49824636265722
30
0
40
0.29225221473807245
100
AcDbArc
50
181.9115869637051
51
358.08841303629487
0
LINE
5
117
100
AcDbEntity
8
0
100
AcDbLine
10
4.0161553206316905
20
-10.507995106639532
30
0
11
4.0161553206316905
21
-12.000000000000002
31
0
0
ARC
5
118
100
AcDbEntity
8
0
100
AcDbCircle
10
56.5
20
-11
30
0
40
7.5000000000000124
100
AcDbArc
50
7.5947904869698561
51
172.40520951303014
0
LINE
5
119
100
AcDbEntity
8
0
100
AcDbLine
10
68
20
-12.000000000000002
30
0
11
63.933034373659261
21
-12.000000000000002
31
0
0
LINE
5
120
100
AcDbEntity
8
0
100
AcDbLine
10
63.934206709919295
20
-10.008753010500831
30
0
11
63.933034373659261
21
-12.000000000000002
31
0
0
LINE
5
121
100
AcDbEntity
8
0
100
AcDbLine
10
49.065793290080713
20
-10.008753010500833
30
0
11
49.066965626340746
21
-12.000000000000002
31
0
0
LINE
5
122
100
AcDbEntity
8
0
100
AcDbLine
10
-0.010979476106363073
20
-15.01376780160542
30
0
11
25.989020523893636
21
-15.01376780160542
31
0
0
LINE
5
123
100
AcDbEntity
8
0
100
AcDbLine
10
25.989020523893636
20
-15.01376780160542
30
0
11
25.989020523893636
21
-12.000000000000002
31
0
0
LINE
5
124
100
AcDbEntity
8
0
100
AcDbLine
10
25.989020523893636
20
-12.000000000000002
30
0
11
25.989020523893636
21
-6.0000000000000018
31
0
0
LINE
5
125
100
AcDbEntity
8
0
100
AcDbLine
10
25.989020523893636
20
-6.0000000000000018
30
0
11
31.589020523893637
21
-6.0000000000000018
31
0
0
LINE
5
126
100
AcDbEntity
8
0
100
AcDbLine
10
25.989020523893636
20
-12.000000000000002
30
0
11
18.982831336782937
21
-12.000000000000002
31
0
0
LINE
5
127
100
AcDbEntity
8
0
100
AcDbLine
10
31.589020523893637
20
-6.0000000000000018
30
0
11
31.589020523893637
21
-14.250000000000004
31
0
0
LINE
5
128
100
AcDbEntity
8
0
100
AcDbLine
10
31.589020523893637
20
-14.250000000000004
30
0
11
40.939020523893639
21
-14.250000000000004
31
0
0
LINE
5
129
100
AcDbEntity
8
0
100
AcDbLine
10
40.939020523893639
20
-14.250000000000004
30
0
11
40.939020523893639
21
-6.0132007356915507
31
0
0
LINE
5
130
100
AcDbEntity
8
0
100
AcDbLine
10
40.939020523893639
20
-6.0132007356915507
30
0
11
42.939020523893639
21
-6.0132007356915507
31
0
0
LINE
5
131
100
AcDbEntity
8
0
100
AcDbLine
10
42.939020523893639
20
-6.0132007356915507
30
0
11
42.939020523893639
21
-12.000000000000002
31
0
0
LINE
5
132
100
AcDbEntity
8
0
100
AcDbLine
10
49.066965626340746
20
-12.000000000000002
30
0
11
42.939020523893639
21
-12.000000000000002
31
0
0
LINE
5
133
100
AcDbEntity
8
0
100
AcDbLine
10
31.589020523893637
20
-6.0000000000000018
30
0
11
31.972086512861519
21
-6.0000000000000018
31
0
0
ENDSEC
0
SECTION
2
OBJECTS
0
DICTIONARY
5
C
100
AcDbDictionary
3
ACAD_GROUP
350
D
3
ACAD_MLINESTYLE
350
17
0
DICTIONARY
5
D
100
AcDbDictionary
0
DICTIONARY
5
1A
330
C
100
AcDbDictionary
0
DICTIONARY
5
17
100
AcDbDictionary
0
ENDSEC
0
EOF
